<svg width="24" height="24" viewBox="0 0 24 24" fill="none" xmlns="http://www.w3.org/2000/svg">
<rect opacity="0.1" x="4" y="4" width="16" height="16" fill="#ECF1F8"/>
<path fill-rule="evenodd" clip-rule="evenodd" d="M6.06065 3.93935L3.93933 6.06067L9.87867 12L3.93933 17.9393L6.06065 20.0607L12 14.1213L17.9393 20.0607L20.0607 17.9393L14.1213 12L20.0607 6.06067L17.9393 3.93935L12 9.87869L6.06065 3.93935Z" fill="#3E4056"/>
<mask id="mask0" mask-type="alpha" maskUnits="userSpaceOnUse" x="3" y="3" width="18" height="18">
<path fill-rule="evenodd" clip-rule="evenodd" d="M6.06065 3.93935L3.93933 6.06067L9.87867 12L3.93933 17.9393L6.06065 20.0607L12 14.1213L17.9393 20.0607L20.0607 17.9393L14.1213 12L20.0607 6.06067L17.9393 3.93935L12 9.87869L6.06065 3.93935Z" fill="white"/>
</mask>
<g mask="url(#mask0)">
<rect width="24" height="24" fill="#3E4056"/>
</g>
</svg>
