<svg viewBox="0 0 24 24" fill="none" xmlns="http://www.w3.org/2000/svg">
  <g id="a/icon_3dots">
  <rect id="16x16" opacity="0.01" x="4" y="4" width="16" height="16" fill="#ECF1F8"/>
  <g id="Combined Shape">
  <mask id="path-2-inside-1" fill="white">
  <path fill-rule="evenodd" clip-rule="evenodd" d="M14 6C14 7.10457 13.1046 8 12 8C10.8954 8 10 7.10457 10 6C10 4.89543 10.8954 4 12 4C13.1046 4 14 4.89543 14 6ZM14 12C14 13.1046 13.1046 14 12 14C10.8954 14 10 13.1046 10 12C10 10.8954 10.8954 10 12 10C13.1046 10 14 10.8954 14 12ZM12 20C13.1046 20 14 19.1046 14 18C14 16.8954 13.1046 16 12 16C10.8954 16 10 16.8954 10 18C10 19.1046 10.8954 20 12 20Z"/>
  </mask>
  <path d="M12 10C14.2091 10 16 8.20914 16 6H12V10ZM8 6C8 8.20914 9.79086 10 12 10V6H8ZM12 2C9.79086 2 8 3.79086 8 6H12V2ZM16 6C16 3.79086 14.2091 2 12 2V6H16ZM12 16C14.2091 16 16 14.2091 16 12H12V16ZM8 12C8 14.2091 9.79086 16 12 16V12H8ZM12 8C9.79086 8 8 9.79086 8 12H12V8ZM16 12C16 9.79086 14.2091 8 12 8V12H16ZM12 18V22C14.2091 22 16 20.2091 16 18H12ZM12 18H16C16 15.7909 14.2091 14 12 14V18ZM12 18V14C9.79086 14 8 15.7909 8 18H12ZM12 18H8C8 20.2091 9.79086 22 12 22V18Z" fill="#3E4056" mask="url(#path-2-inside-1)"/>
  </g>
  <mask id="mask0" mask-type="alpha" maskUnits="userSpaceOnUse" x="10" y="4" width="4" height="16">
  <g id="Combined Shape_2">
  <mask id="path-4-inside-2" mask-type="luminance" fill="white">
  <path fill-rule="evenodd" clip-rule="evenodd" d="M14 6C14 7.10457 13.1046 8 12 8C10.8954 8 10 7.10457 10 6C10 4.89543 10.8954 4 12 4C13.1046 4 14 4.89543 14 6ZM14 12C14 13.1046 13.1046 14 12 14C10.8954 14 10 13.1046 10 12C10 10.8954 10.8954 10 12 10C13.1046 10 14 10.8954 14 12ZM12 20C13.1046 20 14 19.1046 14 18C14 16.8954 13.1046 16 12 16C10.8954 16 10 16.8954 10 18C10 19.1046 10.8954 20 12 20Z"/>
  </mask>
  <path fill-rule="evenodd" clip-rule="evenodd" d="M14 6C14 7.10457 13.1046 8 12 8C10.8954 8 10 7.10457 10 6C10 4.89543 10.8954 4 12 4C13.1046 4 14 4.89543 14 6ZM14 12C14 13.1046 13.1046 14 12 14C10.8954 14 10 13.1046 10 12C10 10.8954 10.8954 10 12 10C13.1046 10 14 10.8954 14 12ZM12 20C13.1046 20 14 19.1046 14 18C14 16.8954 13.1046 16 12 16C10.8954 16 10 16.8954 10 18C10 19.1046 10.8954 20 12 20Z" fill="white"/>
  <path d="M12 10C14.2091 10 16 8.20914 16 6H12V10ZM8 6C8 8.20914 9.79086 10 12 10V6H8ZM12 2C9.79086 2 8 3.79086 8 6H12V2ZM16 6C16 3.79086 14.2091 2 12 2V6H16ZM12 16C14.2091 16 16 14.2091 16 12H12V16ZM8 12C8 14.2091 9.79086 16 12 16V12H8ZM12 8C9.79086 8 8 9.79086 8 12H12V8ZM16 12C16 9.79086 14.2091 8 12 8V12H16ZM12 18V22C14.2091 22 16 20.2091 16 18H12ZM12 18H16C16 15.7909 14.2091 14 12 14V18ZM12 18V14C9.79086 14 8 15.7909 8 18H12ZM12 18H8C8 20.2091 9.79086 22 12 22V18Z" fill="white" mask="url(#path-4-inside-2)"/>
  </g>
  </mask>
  <g mask="url(#mask0)">
  <g id="_/color_dark_gray">
  <rect id="Color" width="24" height="24" fill="#3E4056"/>
  </g>
  </g>
  </g>
</svg>
