<svg width="20" height="20" viewBox="0 0 20 20" fill="none" xmlns="http://www.w3.org/2000/svg">
<rect opacity="0.01" width="20" height="20" fill="#C3CADF"/>
<path fill-rule="evenodd" clip-rule="evenodd" d="M10.8933 2.92764C11.6743 2.14659 12.9407 2.14659 13.7217 2.92764L16.5501 5.75607C17.3312 6.53712 17.3312 7.80345 16.5501 8.5845L9.60644 15.5282C9.52412 15.6105 9.41564 15.6615 9.29972 15.6724L5.58474 16.0219C4.32474 16.1405 3.27281 15.0737 3.40902 13.8155L3.80325 10.1739C3.81552 10.0605 3.86617 9.95475 3.94679 9.87413L10.8933 2.92764ZM11.6004 5.04896C11.9909 4.65844 12.6241 4.65844 13.0146 5.04896L14.4288 6.46318C14.8193 6.8537 14.8193 7.48686 14.4288 7.87739L13.7217 8.5845L10.8933 5.75607L11.6004 5.04896ZM9.47907 7.17028L5.94404 10.7053L5.53083 12.7702C5.39079 13.47 6.00782 14.087 6.70762 13.9469L8.77247 13.5337L12.3075 9.99871L9.47907 7.17028Z" fill="#3E4056"/>
</svg>
